<svg xmlns="http://www.w3.org/2000/svg" version="1.1" xmlns:xlink="http://www.w3.org/1999/xlink" xmlns:svgjs="http://svgjs.dev/svgjs" width="1000" height="1125" viewBox="0 0 1000 1125"><g transform="matrix(1,0,0,1,0,0)"><svg viewBox="0 0 320 360" data-background-color="#fafafa" preserveAspectRatio="xMidYMid meet" height="1125" width="1000" xmlns="http://www.w3.org/2000/svg" xmlns:xlink="http://www.w3.org/1999/xlink"><g id="tight-bounds" transform="matrix(1,0,0,1,0,0)"><svg viewBox="0 0 320 360" height="360" width="320"><g><svg></svg></g><g><svg viewBox="0 0 320 360" height="360" width="320"><g><path xmlns="http://www.w3.org/2000/svg" d="M297.491 100.645c-12.426-21.51-112.674-79.355-137.491-79.355-24.817 0-125.028 57.845-137.491 79.355-11.591 20.02-11.591 138.726 0 158.746 12.463 21.474 112.674 79.319 137.491 79.319 24.817 0 125.064-57.845 137.491-79.355 11.591-20.02 11.591-138.69 0-158.71zM309.481 93.705c-14.461-24.998-119.469-86.295-149.481-86.295-30.012 0-135.02 61.297-149.481 86.295-14.025 24.199-14.025 148.391 0 172.59 14.461 24.998 119.469 86.295 149.481 86.295 30.012 0 135.02-61.297 149.481-86.259 14.025-24.235 14.025-148.427 0-172.626zM300.906 261.353c-12.753 22.055-115.472 81.317-140.906 81.318-25.434 0-128.153-59.298-140.906-81.354-11.881-20.529-11.881-142.178 0-162.707 12.753-22.019 115.472-81.281 140.906-81.281 25.434 0 128.153 59.298 140.906 81.318 11.881 20.529 11.881 142.178 0 162.706z" fill="#130912" fill-rule="nonzero" stroke="none" stroke-width="1" stroke-linecap="butt" stroke-linejoin="miter" stroke-miterlimit="10" stroke-dasharray="" stroke-dashoffset="0" font-family="none" font-weight="none" font-size="none" text-anchor="none" style="mix-blend-mode: normal" data-fill-palette-color="tertiary"></path></g><g transform="matrix(1,0,0,1,48,110.79960792265835)"><svg viewBox="0 0 224 138.4007841546833" height="138.4007841546833" width="224"><g><svg viewBox="0 0 224 138.4007841546833" height="138.4007841546833" width="224"><g><svg viewBox="0 0 224 138.4007841546833" height="138.4007841546833" width="224"><g><svg viewBox="0 0 224 138.4007841546833" height="138.4007841546833" width="224"><g><svg viewBox="0 0 224 110.53691543908046" height="110.53691543908046" width="224"><rect width="224" height="110.53691543908046" x="0" y="0" opacity="1" fill="#130912" data-fill-palette-color="tertiary"></rect><g transform="matrix(1,0,0,1,17.083765800000002,17.083765800000002)"><svg width="189.83246839999998" viewBox="3.5999999046325684 -35 87 35" height="76.36938383908046" data-palette-color="#fafafa"><path d="M3.6-28.7L3.6-35 27-35 27-28.7 18.6-28.7 18.6-6.3 27-6.3 27 0 3.6 0 3.6-6.3 12-6.3 12-28.7 3.6-28.7ZM32.9 0L32.9-6.3 36.2-6.3 36.2-28.7 32.9-28.7 32.9-35 48.25-35Q50.75-35 52.67-34.3 54.6-33.6 55.92-32.4 57.25-31.2 57.92-29.53 58.6-27.85 58.6-25.9L58.6-25.9 58.6-25.3Q58.6-22.3 56.92-20.5 55.25-18.7 52.7-18L52.7-18 52.7-17.1Q55.25-16.4 56.92-14.58 58.6-12.75 58.6-9.75L58.6-9.75 58.6-9.15Q58.6-7.2 57.92-5.53 57.25-3.85 55.92-2.63 54.6-1.4 52.67-0.7 50.75 0 48.25 0L48.25 0 32.9 0ZM42.8-14.4L42.8-6.3 47.6-6.3Q49.7-6.3 51-7.2 52.3-8.1 52.3-10.2L52.3-10.2 52.3-10.5Q52.3-12.6 51-13.5 49.7-14.4 47.6-14.4L47.6-14.4 42.8-14.4ZM42.8-28.7L42.8-20.7 47.6-20.7Q49.7-20.7 51-21.58 52.3-22.45 52.3-24.55L52.3-24.55 52.3-24.85Q52.3-26.95 51-27.83 49.7-28.7 47.6-28.7L47.6-28.7 42.8-28.7ZM70.3 0L62.4-35 69.2-35 76.05-3.3 76.95-3.3 83.8-35 90.6-35 82.7 0 70.3 0Z" opacity="1" transform="matrix(1,0,0,1,0,0)" fill="#fafafa" class="undefined-text-0" data-fill-palette-color="quaternary" id="text-0"></path></svg></g></svg></g><g transform="matrix(1,0,0,1,0,119.07879833908046)"><svg viewBox="0 0 224 19.32198581560284" height="19.32198581560284" width="224"><g transform="matrix(1,0,0,1,0,0)"><svg width="224" viewBox="0 -29.5 563.97998046875 48.650001525878906" height="19.32198581560284" data-palette-color="#fafafa"><path d="M4.5 0L0 0 0-29.5 4.5-29.5 4.5 0ZM7.5 0L6 0 6-29.5 7.5-29.5 7.5 0ZM13.5 0L9 0 9-29.5 13.5-29.5 13.5 0ZM21 0L19.5 0 19.5-29.5 21-29.5 21 0ZM24 0L22.5 0 22.5-29.5 24-29.5 24 0ZM9.2 15.95L9.2 4.35 16.3 4.35 16.3 5.5 10.4 5.5 10.4 9.3 15.3 9.3 15.3 10.5 10.4 10.5 10.4 14.8 16.25 14.8 16.25 15.95 9.2 15.95ZM27 0L25.5 0 25.5-29.5 27-29.5 27 0ZM34.5 0L33 0 33-29.5 34.5-29.5 34.5 0ZM37.5 0L36 0 36-29.5 37.5-29.5 37.5 0ZM45 0L43.5 0 43.5-29.5 45-29.5 45 0ZM52.5 0L51 0 51-29.5 52.5-29.5 52.5 0ZM55.5 0L54 0 54-29.5 55.5-29.5 55.5 0ZM58.5 0L57 0 57-29.5 58.5-29.5 58.5 0ZM64.5 0L60 0 60-29.5 64.5-29.5 64.5 0ZM67.5 0L66 0 66-29.5 67.5-29.5 67.5 0ZM78 0L73.5 0 73.5-29.5 78-29.5 78 0ZM49.2 15.95L49.2 7.45 50.5 7.45 50.5 8.95Q51 8.2 51.75 7.7L51.75 7.7Q52.5 7.25 53.35 7.25L53.35 7.25Q54.5 7.25 55.2 8.1L55.2 8.1Q55.85 9 55.85 10.8L55.85 10.8 55.85 15.95 54.55 15.95 54.55 10.85Q54.55 9.55 54.15 9L54.15 9Q53.7 8.4 53 8.4L53 8.4Q52.4 8.4 51.85 8.75L51.85 8.75Q51.25 9.1 50.85 9.7L50.85 9.7Q50.5 10.3 50.5 11.05L50.5 11.05 50.5 15.95 49.2 15.95ZM81 0L79.5 0 79.5-29.5 81-29.5 81 0ZM88.5 0L87 0 87-29.5 88.5-29.5 88.5 0ZM91.5 0L90 0 90-29.5 91.5-29.5 91.5 0ZM99 0L97.5 0 97.5-29.5 99-29.5 99 0ZM106.5 0L105 0 105-29.5 106.5-29.5 106.5 0ZM109.5 0L108 0 108-29.5 109.5-29.5 109.5 0ZM112.5 0L111 0 111-29.5 112.5-29.5 112.5 0ZM115.5 0L114 0 114-29.5 115.5-29.5 115.5 0ZM126 0L121.5 0 121.5-29.5 126-29.5 126 0ZM132 0L127.5 0 127.5-29.5 132-29.5 132 0ZM110.5 7.25L110.7 8.35Q110.5 8.3 110.2 8.3L110.2 8.3Q109.3 8.3 108.7 8.7L108.7 8.7Q109.05 9.35 109.05 10.1L109.05 10.1Q109.05 10.95 108.65 11.6L108.65 11.6Q108.3 12.3 107.59 12.7L107.59 12.7Q106.95 13.05 106.05 13.05L106.05 13.05Q105.34 13.05 104.75 12.8L104.75 12.8Q104.4 13.2 104.4 13.6L104.4 13.6Q104.4 14.05 104.95 14.25L104.95 14.25Q105.55 14.45 107 14.45L107 14.45Q108.8 14.45 109.45 14.95L109.45 14.95Q110.09 15.5 110.09 16.6L110.09 16.6Q110.09 17.7 109.25 18.4L109.25 18.4Q108.34 19.15 106.45 19.15L106.45 19.15Q104.59 19.15 103.59 18.6L103.59 18.6Q102.55 18.05 102.55 16.95L102.55 16.95Q102.55 16.3 102.95 15.8L102.95 15.8Q103.3 15.3 103.9 15.05L103.9 15.05Q103.25 14.65 103.25 13.9L103.25 13.9Q103.25 13.15 104 12.35L104 12.35Q103.55 11.95 103.3 11.35L103.3 11.35Q103.09 10.8 103.09 10.1L103.09 10.1Q103.09 9.3 103.45 8.6L103.45 8.6Q103.8 7.9 104.5 7.55L104.5 7.55Q105.15 7.15 106.05 7.15L106.05 7.15Q107.4 7.15 108.25 8L108.25 8Q108.65 7.6 109.15 7.4L109.15 7.4Q109.59 7.2 110.2 7.2L110.2 7.2 110.5 7.25ZM106.05 11.95L106.05 11.95Q106.84 11.95 107.4 11.4L107.4 11.4Q107.9 10.9 107.9 10.1L107.9 10.1Q107.9 9.3 107.4 8.75L107.4 8.75Q106.84 8.25 106.05 8.25L106.05 8.25Q105.25 8.25 104.7 8.75L104.7 8.75Q104.2 9.3 104.2 10.1L104.2 10.1Q104.2 10.9 104.7 11.4L104.7 11.4Q105.25 11.95 106.05 11.95ZM108.9 16.8L108.9 16.8Q108.9 16.35 108.75 16.1L108.75 16.1Q108.59 15.85 108.09 15.7L108.09 15.7Q107.65 15.6 106.7 15.6L106.7 15.6Q105.4 15.6 104.59 15.35L104.59 15.35Q104.15 15.65 103.95 15.95L103.95 15.95Q103.8 16.3 103.8 16.8L103.8 16.8Q103.8 17.45 104.5 17.8L104.5 17.8Q105.2 18.15 106.45 18.15L106.45 18.15Q107.7 18.15 108.3 17.8L108.3 17.8Q108.9 17.4 108.9 16.8ZM134.99 0L133.49 0 133.49-29.5 134.99-29.5 134.99 0ZM142.49 0L140.99 0 140.99-29.5 142.49-29.5 142.49 0ZM145.49 0L143.99 0 143.99-29.5 145.49-29.5 145.49 0ZM152.99 0L151.49 0 151.49-29.5 152.99-29.5 152.99 0ZM160.49 0L158.99 0 158.99-29.5 160.49-29.5 160.49 0ZM163.49 0L161.99 0 161.99-29.5 163.49-29.5 163.49 0ZM169.49 0L164.99 0 164.99-29.5 169.49-29.5 169.49 0ZM172.49 0L170.99 0 170.99-29.5 172.49-29.5 172.49 0ZM182.99 0L178.49 0 178.49-29.5 182.99-29.5 182.99 0ZM185.99 0L184.49 0 184.49-29.5 185.99-29.5 185.99 0ZM157.69 15.95L157.69 14.85 159.89 14.85 159.89 8.55 157.79 8.55 157.79 7.45 161.19 7.45 161.19 14.85 163.19 14.85 163.19 15.95 157.69 15.95ZM160.49 5.65L160.49 5.65Q160.09 5.65 159.79 5.4L159.79 5.4Q159.54 5.1 159.54 4.7L159.54 4.7Q159.54 4.3 159.79 4.05L159.79 4.05Q160.04 3.75 160.49 3.75L160.49 3.75Q160.84 3.75 161.14 4.05L161.14 4.05Q161.44 4.35 161.44 4.7L161.44 4.7Q161.44 5.1 161.14 5.4L161.14 5.4Q160.84 5.65 160.49 5.65ZM188.99 0L187.49 0 187.49-29.5 188.99-29.5 188.99 0ZM196.49 0L194.99 0 194.99-29.5 196.49-29.5 196.49 0ZM199.49 0L197.99 0 197.99-29.5 199.49-29.5 199.49 0ZM206.99 0L205.49 0 205.49-29.5 206.99-29.5 206.99 0ZM214.49 0L212.99 0 212.99-29.5 214.49-29.5 214.49 0ZM217.49 0L215.99 0 215.99-29.5 217.49-29.5 217.49 0ZM220.49 0L218.99 0 218.99-29.5 220.49-29.5 220.49 0ZM226.49 0L221.99 0 221.99-29.5 226.49-29.5 226.49 0ZM229.49 0L227.99 0 227.99-29.5 229.49-29.5 229.49 0ZM239.99 0L235.49 0 235.49-29.5 239.99-29.5 239.99 0ZM211.19 15.95L211.19 7.45 212.49 7.45 212.49 8.95Q212.99 8.2 213.74 7.7L213.74 7.7Q214.49 7.25 215.34 7.25L215.34 7.25Q216.49 7.25 217.19 8.1L217.19 8.1Q217.84 9 217.84 10.8L217.84 10.8 217.84 15.95 216.54 15.95 216.54 10.85Q216.54 9.55 216.14 9L216.14 9Q215.69 8.4 214.99 8.4L214.99 8.4Q214.39 8.4 213.84 8.75L213.84 8.75Q213.24 9.1 212.84 9.7L212.84 9.7Q212.49 10.3 212.49 11.05L212.49 11.05 212.49 15.95 211.19 15.95ZM242.99 0L241.49 0 241.49-29.5 242.99-29.5 242.99 0ZM250.49 0L248.99 0 248.99-29.5 250.49-29.5 250.49 0ZM253.49 0L251.99 0 251.99-29.5 253.49-29.5 253.49 0ZM260.99 0L259.49 0 259.49-29.5 260.99-29.5 260.99 0ZM268.49 0L266.99 0 266.99-29.5 268.49-29.5 268.49 0ZM274.49 0L269.99 0 269.99-29.5 274.49-29.5 274.49 0ZM277.49 0L275.99 0 275.99-29.5 277.49-29.5 277.49 0ZM283.49 0L278.99 0 278.99-29.5 283.49-29.5 283.49 0ZM290.99 0L289.49 0 289.49-29.5 290.99-29.5 290.99 0ZM293.99 0L292.49 0 292.49-29.5 293.99-29.5 293.99 0ZM268.89 16.15L268.89 16.15Q266.99 16.15 265.89 15L265.89 15Q264.74 13.85 264.74 11.75L264.74 11.75Q264.74 10.35 265.29 9.3L265.29 9.3Q265.79 8.3 266.69 7.8L266.69 7.8Q267.54 7.25 268.64 7.25L268.64 7.25Q270.19 7.25 271.14 8.25L271.14 8.25Q272.09 9.3 272.09 11.3L272.09 11.3Q272.09 11.5 272.09 11.9L272.09 11.9 266.04 11.9Q266.09 13.45 266.89 14.25L266.89 14.25Q267.69 15.05 268.94 15.05L268.94 15.05Q270.29 15.05 271.14 14.1L271.14 14.1 271.89 14.85Q270.79 16.15 268.89 16.15ZM266.09 10.85L270.74 10.85Q270.74 9.65 270.14 8.95L270.14 8.95Q269.54 8.25 268.54 8.25L268.54 8.25Q267.64 8.25 266.94 8.9L266.94 8.9Q266.24 9.55 266.09 10.85L266.09 10.85ZM296.99 0L295.49 0 295.49-29.5 296.99-29.5 296.99 0ZM304.49 0L302.99 0 302.99-29.5 304.49-29.5 304.49 0ZM307.49 0L305.99 0 305.99-29.5 307.49-29.5 307.49 0ZM314.99 0L313.49 0 313.49-29.5 314.99-29.5 314.99 0ZM322.49 0L320.99 0 320.99-29.5 322.49-29.5 322.49 0ZM328.49 0L323.99 0 323.99-29.5 328.49-29.5 328.49 0ZM331.49 0L329.99 0 329.99-29.5 331.49-29.5 331.49 0ZM337.49 0L332.99 0 332.99-29.5 337.49-29.5 337.49 0ZM344.99 0L343.49 0 343.49-29.5 344.99-29.5 344.99 0ZM347.99 0L346.49 0 346.49-29.5 347.99-29.5 347.99 0ZM322.88 16.15L322.88 16.15Q320.99 16.15 319.88 15L319.88 15Q318.74 13.85 318.74 11.75L318.74 11.75Q318.74 10.35 319.29 9.3L319.29 9.3Q319.79 8.3 320.69 7.8L320.69 7.8Q321.54 7.25 322.63 7.25L322.63 7.25Q324.19 7.25 325.13 8.25L325.13 8.25Q326.09 9.3 326.09 11.3L326.09 11.3Q326.09 11.5 326.09 11.9L326.09 11.9 320.04 11.9Q320.09 13.45 320.88 14.25L320.88 14.25Q321.69 15.05 322.94 15.05L322.94 15.05Q324.29 15.05 325.13 14.1L325.13 14.1 325.88 14.85Q324.79 16.15 322.88 16.15ZM320.09 10.85L324.74 10.85Q324.74 9.65 324.13 8.95L324.13 8.95Q323.54 8.25 322.54 8.25L322.54 8.25Q321.63 8.25 320.94 8.9L320.94 8.9Q320.24 9.55 320.09 10.85L320.09 10.85ZM350.98 0L349.48 0 349.48-29.5 350.98-29.5 350.98 0ZM358.48 0L356.98 0 356.98-29.5 358.48-29.5 358.48 0ZM361.48 0L359.98 0 359.98-29.5 361.48-29.5 361.48 0ZM368.98 0L367.48 0 367.48-29.5 368.98-29.5 368.98 0ZM376.48 0L374.98 0 374.98-29.5 376.48-29.5 376.48 0ZM382.48 0L377.98 0 377.98-29.5 382.48-29.5 382.48 0ZM385.48 0L383.98 0 383.98-29.5 385.48-29.5 385.48 0ZM388.48 0L386.98 0 386.98-29.5 388.48-29.5 388.48 0ZM394.48 0L389.98 0 389.98-29.5 394.48-29.5 394.48 0ZM401.98 0L400.48 0 400.48-29.5 401.98-29.5 401.98 0ZM378.08 7.25L378.08 7.25Q379.43 7.25 380.33 8.2L380.33 8.2 379.73 9.2 379.68 9.4 379.53 9.3Q379.48 9.1 379.43 9L379.43 9Q379.33 8.85 379.08 8.7L379.08 8.7Q378.63 8.4 377.98 8.4L377.98 8.4Q377.33 8.4 376.73 8.75L376.73 8.75Q376.13 9.05 375.78 9.75L375.78 9.75Q375.38 10.45 375.38 11.45L375.38 11.45 375.38 15.95 374.03 15.95 374.03 7.45 375.43 7.45 375.38 9Q375.73 8.2 376.48 7.7L376.48 7.7Q377.23 7.25 378.08 7.25ZM404.98 0L403.48 0 403.48-29.5 404.98-29.5 404.98 0ZM412.48 0L410.98 0 410.98-29.5 412.48-29.5 412.48 0ZM415.48 0L413.98 0 413.98-29.5 415.48-29.5 415.48 0ZM422.98 0L421.48 0 421.48-29.5 422.98-29.5 422.98 0ZM430.48 0L428.98 0 428.98-29.5 430.48-29.5 430.48 0ZM433.48 0L431.98 0 431.98-29.5 433.48-29.5 433.48 0ZM439.48 0L434.98 0 434.98-29.5 439.48-29.5 439.48 0ZM442.48 0L440.98 0 440.98-29.5 442.48-29.5 442.48 0ZM452.98 0L448.48 0 448.48-29.5 452.98-29.5 452.98 0ZM455.98 0L454.48 0 454.48-29.5 455.98-29.5 455.98 0ZM427.68 15.95L427.68 14.85 429.88 14.85 429.88 8.55 427.78 8.55 427.78 7.45 431.18 7.45 431.18 14.85 433.18 14.85 433.18 15.95 427.68 15.95ZM430.48 5.65L430.48 5.65Q430.08 5.65 429.78 5.4L429.78 5.4Q429.53 5.1 429.53 4.7L429.53 4.7Q429.53 4.3 429.78 4.05L429.78 4.05Q430.03 3.75 430.48 3.75L430.48 3.75Q430.83 3.75 431.13 4.05L431.13 4.05Q431.43 4.35 431.43 4.7L431.43 4.7Q431.43 5.1 431.13 5.4L431.13 5.4Q430.83 5.65 430.48 5.65ZM458.98 0L457.48 0 457.48-29.5 458.98-29.5 458.98 0ZM466.48 0L464.98 0 464.98-29.5 466.48-29.5 466.48 0ZM469.48 0L467.98 0 467.98-29.5 469.48-29.5 469.48 0ZM476.98 0L475.48 0 475.48-29.5 476.98-29.5 476.98 0ZM484.48 0L482.98 0 482.98-29.5 484.48-29.5 484.48 0ZM487.48 0L485.98 0 485.98-29.5 487.48-29.5 487.48 0ZM490.48 0L488.98 0 488.98-29.5 490.48-29.5 490.48 0ZM496.48 0L491.98 0 491.98-29.5 496.48-29.5 496.48 0ZM499.48 0L497.98 0 497.98-29.5 499.48-29.5 499.48 0ZM509.98 0L505.48 0 505.48-29.5 509.98-29.5 509.98 0ZM481.18 15.95L481.18 7.45 482.48 7.45 482.48 8.95Q482.98 8.2 483.73 7.7L483.73 7.7Q484.48 7.25 485.33 7.25L485.33 7.25Q486.48 7.25 487.18 8.1L487.18 8.1Q487.83 9 487.83 10.8L487.83 10.8 487.83 15.95 486.53 15.95 486.53 10.85Q486.53 9.55 486.13 9L486.13 9Q485.68 8.4 484.98 8.4L484.98 8.4Q484.38 8.4 483.83 8.75L483.83 8.75Q483.23 9.1 482.83 9.7L482.83 9.7Q482.48 10.3 482.48 11.05L482.48 11.05 482.48 15.95 481.18 15.95ZM512.98 0L511.48 0 511.48-29.5 512.98-29.5 512.98 0ZM520.48 0L518.98 0 518.98-29.5 520.48-29.5 520.48 0ZM523.48 0L521.98 0 521.98-29.5 523.48-29.5 523.48 0ZM530.98 0L529.48 0 529.48-29.5 530.98-29.5 530.98 0ZM538.48 0L536.98 0 536.98-29.5 538.48-29.5 538.48 0ZM541.48 0L539.98 0 539.98-29.5 541.48-29.5 541.48 0ZM544.48 0L542.98 0 542.98-29.5 544.48-29.5 544.48 0ZM547.48 0L545.98 0 545.98-29.5 547.48-29.5 547.48 0ZM557.98 0L553.48 0 553.48-29.5 557.98-29.5 557.98 0ZM563.98 0L559.48 0 559.48-29.5 563.98-29.5 563.98 0ZM542.48 7.25L542.68 8.35Q542.48 8.3 542.18 8.3L542.18 8.3Q541.27 8.3 540.68 8.7L540.68 8.7Q541.02 9.35 541.02 10.1L541.02 10.1Q541.02 10.95 540.63 11.6L540.63 11.6Q540.27 12.3 539.58 12.7L539.58 12.7Q538.93 13.05 538.02 13.05L538.02 13.05Q537.33 13.05 536.73 12.8L536.73 12.8Q536.38 13.2 536.38 13.6L536.38 13.6Q536.38 14.05 536.93 14.25L536.93 14.25Q537.52 14.45 538.98 14.45L538.98 14.45Q540.77 14.45 541.43 14.95L541.43 14.95Q542.08 15.5 542.08 16.6L542.08 16.6Q542.08 17.7 541.23 18.4L541.23 18.4Q540.33 19.15 538.43 19.15L538.43 19.15Q536.58 19.15 535.58 18.6L535.58 18.6Q534.52 18.05 534.52 16.95L534.52 16.95Q534.52 16.3 534.93 15.8L534.93 15.8Q535.27 15.3 535.88 15.05L535.88 15.05Q535.23 14.65 535.23 13.9L535.23 13.9Q535.23 13.15 535.98 12.35L535.98 12.35Q535.52 11.95 535.27 11.35L535.27 11.35Q535.08 10.8 535.08 10.1L535.08 10.1Q535.08 9.3 535.43 8.6L535.43 8.6Q535.77 7.9 536.48 7.55L536.48 7.55Q537.13 7.15 538.02 7.15L538.02 7.15Q539.38 7.15 540.23 8L540.23 8Q540.63 7.6 541.13 7.4L541.13 7.4Q541.58 7.2 542.18 7.2L542.18 7.2 542.48 7.25ZM538.02 11.95L538.02 11.95Q538.83 11.95 539.38 11.4L539.38 11.4Q539.88 10.9 539.88 10.1L539.88 10.1Q539.88 9.3 539.38 8.75L539.38 8.75Q538.83 8.25 538.02 8.25L538.02 8.25Q537.23 8.25 536.68 8.75L536.68 8.75Q536.18 9.3 536.18 10.1L536.18 10.1Q536.18 10.9 536.68 11.4L536.68 11.4Q537.23 11.95 538.02 11.95ZM540.88 16.8L540.88 16.8Q540.88 16.35 540.73 16.1L540.73 16.1Q540.58 15.85 540.08 15.7L540.08 15.7Q539.63 15.6 538.68 15.6L538.68 15.6Q537.38 15.6 536.58 15.35L536.58 15.35Q536.13 15.65 535.93 15.95L535.93 15.95Q535.77 16.3 535.77 16.8L535.77 16.8Q535.77 17.45 536.48 17.8L536.48 17.8Q537.18 18.15 538.43 18.15L538.43 18.15Q539.68 18.15 540.27 17.8L540.27 17.8Q540.88 17.4 540.88 16.8Z" opacity="1" transform="matrix(1,0,0,1,0,0)" fill="#fafafa" class="undefined-text-1" data-fill-palette-color="quaternary" id="text-1"></path></svg></g></svg></g></svg></g></svg></g><g></g></svg></g></svg></g></svg></g><defs></defs></svg><rect width="320" height="360" fill="none" stroke="none" visibility="hidden"></rect></g></svg></g></svg>