<?xml version="1.0" standalone="no"?>
<!DOCTYPE svg PUBLIC "-//W3C//DTD SVG 20010904//EN"
 "http://www.w3.org/TR/2001/REC-SVG-20010904/DTD/svg10.dtd">
<svg version="1.0" xmlns="http://www.w3.org/2000/svg"
 width="225.000000pt" height="225.000000pt" viewBox="0 0 225.000000 225.000000"
 preserveAspectRatio="xMidYMid meet">
<metadata>
Created by potrace 1.10, written by Peter Selinger 2001-2011
</metadata>
<g transform="translate(0.000000,225.000000) scale(0.100000,-0.100000)"
fill="#000000" stroke="none">
<path d="M2010 2229 c-14 -5 -85 -69 -158 -142 -115 -115 -134 -130 -150 -120
-97 69 -243 130 -378 158 -103 23 -292 22 -399 0 -445 -93 -768 -451 -814
-902 -22 -215 39 -476 149 -639 16 -25 30 -48 30 -52 0 -4 -57 -63 -126 -132
-69 -69 -132 -139 -140 -157 -55 -127 53 -254 193 -228 31 6 61 30 173 141 75
74 139 134 143 134 4 0 32 -16 63 -36 173 -111 421 -167 634 -143 401 45 727
305 861 687 34 98 50 203 50 327 0 191 -47 370 -137 515 -24 39 -44 75 -44 79
0 3 57 62 126 131 69 69 132 139 140 157 30 70 5 159 -57 204 -36 26 -119 35
-159 18z m121 -44 c36 -19 69 -70 69 -108 0 -47 -28 -87 -145 -207 -62 -63
-117 -124 -123 -136 -12 -23 -12 -22 52 -136 45 -81 89 -206 106 -303 17 -95
8 -329 -15 -415 -48 -175 -134 -322 -264 -450 -188 -187 -423 -283 -692 -281
-181 1 -335 41 -483 127 -44 26 -90 47 -103 47 -17 0 -62 -38 -157 -131 -77
-76 -144 -134 -160 -138 -99 -24 -187 63 -162 161 4 14 65 86 136 160 77 79
130 141 130 153 0 11 -26 71 -58 134 -91 178 -107 246 -107 463 0 158 3 190
23 260 161 562 756 858 1308 650 38 -14 103 -46 145 -70 42 -25 82 -45 89 -45
7 0 70 56 139 124 69 69 140 132 156 140 38 20 78 20 116 1z"/>
<path d="M945 1984 c-297 -66 -545 -284 -648 -569 -54 -151 -61 -370 -18 -523
53 -185 172 -354 338 -480 58 -45 185 -106 273 -132 114 -33 297 -38 418 -11
221 49 414 181 541 371 108 161 153 322 147 520 -9 251 -119 473 -321 643 -76
64 -232 145 -330 172 -87 24 -310 29 -400 9z m390 -48 c154 -42 335 -158 435
-280 64 -78 133 -210 162 -312 30 -104 32 -323 4 -424 -79 -291 -304 -519
-593 -602 -113 -33 -324 -33 -438 0 -277 79 -488 282 -576 552 -26 78 -32 117
-36 216 -11 252 67 454 242 630 117 117 262 196 425 230 84 17 293 12 375 -10z"/>
<path d="M921 1294 c-24 -110 -45 -206 -48 -214 -3 -8 -26 72 -53 178 -26 106
-49 195 -51 197 -4 3 -230 -15 -236 -19 -1 -1 49 -150 112 -331 l113 -330 101
3 c167 6 141 -31 240 337 48 176 91 330 95 343 7 21 5 22 -52 22 -32 0 -86 3
-118 6 l-60 6 -43 -198z m214 136 c3 -5 -29 -137 -71 -292 -55 -203 -82 -288
-96 -300 -16 -14 -38 -18 -99 -18 -76 0 -79 1 -92 28 -25 49 -190 543 -184
549 4 3 37 8 76 11 61 4 70 2 75 -14 3 -11 21 -80 41 -154 66 -256 105 -250
170 29 19 84 38 157 41 162 7 12 131 11 139 -1z"/>
<path d="M1354 1469 c-135 -52 -202 -204 -143 -326 29 -60 82 -89 179 -97 83
-7 112 -24 94 -54 -18 -27 -174 -23 -231 5 l-42 21 -6 -52 c-4 -28 -7 -73 -8
-100 l-2 -49 60 -25 c71 -29 207 -40 272 -23 107 29 182 118 191 226 11 135
-66 214 -210 215 -80 0 -98 6 -98 31 0 39 112 52 203 25 l46 -14 6 57 c3 31 8
77 11 103 l6 47 -53 15 c-75 23 -210 20 -275 -5z m246 -28 c20 -5 26 -14 28
-45 7 -79 4 -81 -102 -81 -86 0 -97 -2 -120 -24 -34 -32 -34 -73 0 -100 21
-16 41 -21 93 -21 75 0 123 -20 155 -63 16 -22 21 -43 21 -97 0 -60 -4 -74
-30 -112 -44 -62 -102 -91 -195 -96 -53 -3 -94 1 -133 12 -74 21 -89 38 -81
84 9 51 16 56 59 42 59 -19 156 -18 188 3 50 33 45 101 -10 126 -14 6 -53 14
-87 18 -105 10 -156 60 -156 154 0 85 57 161 146 193 40 15 180 19 224 7z"/>
</g>
</svg>
