<?xml version="1.0" standalone="no"?>
<!DOCTYPE svg PUBLIC "-//W3C//DTD SVG 20010904//EN"
 "http://www.w3.org/TR/2001/REC-SVG-20010904/DTD/svg10.dtd">
<svg version="1.0" xmlns="http://www.w3.org/2000/svg"
 width="500.000000pt" height="500.000000pt" viewBox="0 0 500.000000 500.000000"
 preserveAspectRatio="xMidYMid meet">

<g transform="translate(0.000000,500.000000) scale(0.100000,-0.100000)"
fill="#000000" stroke="none">
<path d="M2393 4326 c-105 -34 -195 -115 -241 -214 -35 -78 -37 -209 -4 -294
70 -175 266 -273 450 -224 277 74 373 415 176 626 -70 75 -154 113 -257 117
-51 2 -98 -2 -124 -11z"/>
<path d="M1460 3790 c-122 -21 -240 -83 -334 -175 -223 -218 -260 -562 -88
-824 20 -31 150 -171 289 -311 l252 -255 -268 -270 c-232 -234 -272 -280 -304
-342 -184 -357 -23 -777 353 -919 70 -26 85 -28 220 -28 132 0 151 2 212 26
131 50 173 83 446 352 144 143 262 262 262 265 -1 3 -25 32 -55 65 -30 32 -52
62 -49 67 3 5 1 9 -4 9 -14 0 -86 108 -129 195 -58 116 -97 235 -122 375 -24
127 -4 496 29 535 5 6 7 14 4 17 -11 12 58 185 113 287 42 76 64 108 150 212
l62 76 -277 274 c-265 263 -281 276 -358 312 -130 60 -270 80 -404 57z"/>
</g>
</svg>
